<?xml version="1.0" standalone="no"?>
<!DOCTYPE svg PUBLIC "-//W3C//DTD SVG 20010904//EN"
 "http://www.w3.org/TR/2001/REC-SVG-20010904/DTD/svg10.dtd">
<svg version="1.0" xmlns="http://www.w3.org/2000/svg"
 width="250.000000pt" height="55.000000pt" viewBox="0 0 250.000000 55.000000"
 preserveAspectRatio="xMidYMid meet">

<g transform="translate(0.000000,55.000000) scale(0.100000,-0.100000)"
fill="#000000" stroke="none">
<path d="M1957 473 c-16 -15 -6 -43 14 -43 11 0 23 -8 26 -17 2 -10 16 -26 29
-37 l25 -18 -13 23 c-21 36 -52 64 -66 61 -12 -3 -12 -1 -1 11 13 14 49 12 49
-3 0 -5 8 -6 18 -3 23 6 140 -72 154 -103 6 -13 15 -24 20 -24 5 0 4 8 -1 19
-36 66 -223 165 -254 134z"/>
<path d="M1961 405 c0 -11 6 -33 13 -50 10 -24 13 -26 19 -12 3 9 2 17 -3 17
-5 0 -14 15 -19 33 -5 19 -9 24 -10 12z"/>
<path d="M2050 341 c0 -5 7 -12 16 -15 14 -5 15 -4 4 9 -14 17 -20 19 -20 6z"/>
<path d="M1991 315 c1 -19 18 -51 18 -35 0 8 -4 22 -9 30 -5 8 -9 11 -9 5z"/>
<path d="M2109 256 c23 -39 28 -56 19 -59 -8 -4 -7 -6 4 -6 17 -1 44 -38 35
-48 -12 -11 -70 -7 -75 5 -3 11 0 12 16 3 29 -15 37 -14 22 4 -7 8 -20 15 -30
15 -22 0 -50 30 -29 31 8 0 5 4 -6 9 -27 12 -37 12 -30 1 3 -6 -9 -7 -30 -4
-24 4 -35 2 -35 -7 0 -7 7 -10 15 -7 8 4 17 2 20 -3 3 -5 11 -7 18 -5 19 7 58
-31 51 -49 -3 -9 -11 -16 -16 -16 -7 0 -6 5 1 14 9 11 7 15 -11 21 -13 4 -29
6 -35 6 -7 -1 -13 2 -13 7 0 5 -17 6 -41 2 -35 -7 -39 -5 -35 9 4 9 -8 1 -25
-17 -17 -19 -29 -36 -26 -38 7 -8 67 8 62 17 -3 4 -1 11 5 14 6 4 9 1 8 -6 -4
-18 53 -29 167 -32 94 -2 100 -1 101 18 1 11 8 37 16 58 8 21 13 50 10 63 -6
34 -12 25 -17 -30 -3 -26 -10 -57 -16 -68 l-11 -21 -19 24 c-10 13 -19 30 -19
37 0 6 -3 12 -7 12 -12 0 -33 52 -26 63 3 6 1 7 -5 3 -6 -3 -13 3 -17 14 -3
11 -11 20 -16 20 -6 0 3 -24 20 -54z m-64 -117 c11 -11 -9 -12 -54 -3 -17 4
-31 11 -31 16 0 11 71 0 85 -13z"/>
<path d="M70 241 c0 -6 14 -11 30 -13 l31 -3 -30 -35 c-43 -50 -40 -60 19 -60
28 0 50 5 50 10 0 6 -13 10 -30 10 -36 0 -37 3 -5 44 36 47 32 56 -20 56 -25
0 -45 -4 -45 -9z"/>
<path d="M200 240 c0 -5 5 -10 10 -10 6 0 10 5 10 10 0 6 -4 10 -10 10 -5 0
-10 -4 -10 -10z"/>
<path d="M360 190 c0 -33 4 -60 10 -60 6 0 10 27 10 60 0 33 -4 60 -10 60 -6
0 -10 -27 -10 -60z"/>
<path d="M790 190 c0 -68 17 -82 22 -17 l3 42 23 -42 c33 -63 52 -57 52 17 0
47 -3 60 -15 60 -11 0 -15 -12 -16 -42 l0 -43 -22 43 c-31 61 -47 55 -47 -18z"/>
<path d="M920 240 c0 -5 5 -10 10 -10 6 0 10 5 10 10 0 6 -4 10 -10 10 -5 0
-10 -4 -10 -10z"/>
<path d="M1550 229 c0 -16 -4 -19 -20 -14 -26 8 -50 -11 -50 -40 0 -30 18 -42
58 -42 l32 0 0 59 c0 32 -4 58 -10 58 -5 0 -10 -9 -10 -21z m-7 -41 c6 -19 -3
-38 -18 -38 -18 0 -28 17 -21 35 7 18 33 20 39 3z"/>
<path d="M1710 240 c0 -5 5 -10 10 -10 6 0 10 5 10 10 0 6 -4 10 -10 10 -5 0
-10 -4 -10 -10z"/>
<path d="M1760 190 c0 -33 4 -60 10 -60 6 0 10 10 10 23 l1 22 18 -22 c11 -13
25 -23 32 -23 8 0 5 8 -9 22 l-22 22 22 23 c25 27 5 33 -24 6 -17 -15 -18 -14
-18 15 0 18 -4 32 -10 32 -6 0 -10 -27 -10 -60z"/>
<path d="M200 175 c0 -25 5 -45 10 -45 6 0 10 20 10 45 0 25 -4 45 -10 45 -5
0 -10 -20 -10 -45z"/>
<path d="M258 209 c-10 -5 -18 -21 -18 -35 0 -31 38 -52 66 -35 17 9 16 10 -8
11 -15 0 -30 5 -33 10 -4 6 8 10 29 10 39 0 45 10 20 34 -18 18 -32 20 -56 5z
m39 -15 c-3 -3 -12 -4 -19 -1 -8 3 -5 6 6 6 11 1 17 -2 13 -5z"/>
<path d="M418 209 c-47 -27 -1 -93 48 -70 30 13 33 56 5 71 -24 12 -31 12 -53
-1z m50 -32 c4 -20 -25 -34 -40 -19 -15 15 -1 44 19 40 10 -2 19 -11 21 -21z"/>
<path d="M520 174 c0 -51 17 -60 22 -11 2 20 8 32 18 32 10 0 16 -12 18 -32 4
-44 22 -42 22 1 0 39 -12 50 -52 52 -27 2 -28 -1 -28 -42z"/>
<path d="M620 215 c0 -2 7 -23 16 -46 14 -34 15 -42 3 -49 -17 -11 -7 -23 12
-15 20 7 61 115 45 115 -7 0 -18 -15 -23 -32 l-10 -33 -13 33 c-6 17 -16 32
-21 32 -5 0 -9 -2 -9 -5z"/>
<path d="M920 175 c0 -25 5 -45 10 -45 6 0 10 20 10 45 0 25 -4 45 -10 45 -5
0 -10 -20 -10 -45z"/>
<path d="M978 209 c-10 -5 -18 -21 -18 -35 0 -31 38 -52 66 -35 17 9 16 10 -8
11 -15 0 -30 5 -33 10 -4 6 8 10 29 10 39 0 45 10 20 34 -18 18 -32 20 -56 5z
m39 -15 c-3 -3 -12 -4 -19 -1 -8 3 -5 6 6 6 11 1 17 -2 13 -5z"/>
<path d="M1080 159 c0 -33 4 -59 10 -59 6 0 10 9 10 21 0 15 5 19 15 15 28
-10 45 5 45 40 0 19 -3 34 -7 35 -5 1 -23 2 -40 4 l-33 3 0 -59z m60 16 c0
-18 -5 -25 -20 -25 -15 0 -20 7 -20 25 0 18 5 25 20 25 15 0 20 -7 20 -25z"/>
<path d="M1198 209 c-47 -27 -1 -93 48 -70 30 13 33 56 5 71 -24 12 -31 12
-53 -1z m50 -32 c4 -20 -25 -34 -40 -19 -15 15 -1 44 19 40 10 -2 19 -11 21
-21z"/>
<path d="M1300 175 c0 -25 5 -45 10 -45 6 0 10 14 10 31 0 22 5 32 20 36 11 3
20 9 20 14 0 13 -14 11 -28 -3 -9 -9 -12 -9 -12 0 0 7 -4 12 -10 12 -5 0 -10
-20 -10 -45z"/>
<path d="M1380 210 c0 -5 12 -10 28 -11 26 -1 26 -1 -5 -10 -23 -7 -33 -16
-33 -29 0 -11 3 -20 8 -21 68 -10 72 -8 72 31 0 25 -5 40 -16 44 -24 9 -54 7
-54 -4z m45 -50 c-3 -5 -13 -10 -21 -10 -8 0 -14 5 -14 10 0 6 9 10 21 10 11
0 17 -4 14 -10z"/>
<path d="M1600 174 c0 -51 17 -60 22 -11 2 20 8 32 18 32 10 0 16 -12 18 -32
4 -44 22 -42 22 1 0 39 -12 50 -52 52 -27 2 -28 -1 -28 -42z"/>
<path d="M1710 175 c0 -25 5 -45 10 -45 6 0 10 20 10 45 0 25 -4 45 -10 45 -5
0 -10 -20 -10 -45z"/>
<path d="M1940 189 c0 -5 5 -7 10 -4 6 3 10 8 10 11 0 2 -4 4 -10 4 -5 0 -10
-5 -10 -11z"/>
<path d="M70 80 c0 -7 390 -10 1150 -10 760 0 1150 3 1150 10 0 7 -390 10
-1150 10 -760 0 -1150 -3 -1150 -10z"/>
</g>
</svg>
